<mxfile host="Electron" modified="2024-03-02T16:05:55.239Z" agent="Mozilla/5.0 (X11; Linux x86_64) AppleWebKit/537.36 (KHTML, like Gecko) draw.io/21.6.5 Chrome/114.0.5735.243 Electron/25.3.1 Safari/537.36" etag="qpzNyiwX-BbwfhPGB1Be" version="21.6.5" type="device">
  <diagram name="Page-1" id="XXzdTwFmudmYpQY7Pgvn">
    <mxGraphModel dx="1521" dy="1167" grid="1" gridSize="10" guides="1" tooltips="1" connect="1" arrows="1" fold="1" page="0" pageScale="1" pageWidth="827" pageHeight="1169" math="0" shadow="0">
      <root>
        <mxCell id="0" />
        <mxCell id="1" parent="0" />
        <mxCell id="KVnZquM8vTKHYH_qeA71-3" style="edgeStyle=orthogonalEdgeStyle;rounded=0;orthogonalLoop=1;jettySize=auto;html=1;entryX=0.5;entryY=0;entryDx=0;entryDy=0;" edge="1" parent="1" source="KVnZquM8vTKHYH_qeA71-1" target="KVnZquM8vTKHYH_qeA71-2">
          <mxGeometry relative="1" as="geometry" />
        </mxCell>
        <mxCell id="KVnZquM8vTKHYH_qeA71-1" value="Source" style="rounded=1;whiteSpace=wrap;html=1;fillColor=#dae8fc;strokeColor=#6c8ebf;" vertex="1" parent="1">
          <mxGeometry x="120" y="160" width="120" height="60" as="geometry" />
        </mxCell>
        <mxCell id="KVnZquM8vTKHYH_qeA71-5" style="edgeStyle=orthogonalEdgeStyle;rounded=0;orthogonalLoop=1;jettySize=auto;html=1;" edge="1" parent="1" source="KVnZquM8vTKHYH_qeA71-2" target="KVnZquM8vTKHYH_qeA71-4">
          <mxGeometry relative="1" as="geometry" />
        </mxCell>
        <mxCell id="KVnZquM8vTKHYH_qeA71-2" value="Parser" style="ellipse;whiteSpace=wrap;html=1;fillColor=#ffe6cc;strokeColor=#d79b00;" vertex="1" parent="1">
          <mxGeometry x="120" y="260" width="120" height="60" as="geometry" />
        </mxCell>
        <mxCell id="KVnZquM8vTKHYH_qeA71-7" style="edgeStyle=orthogonalEdgeStyle;rounded=0;orthogonalLoop=1;jettySize=auto;html=1;entryX=0.5;entryY=0;entryDx=0;entryDy=0;" edge="1" parent="1" source="KVnZquM8vTKHYH_qeA71-4" target="KVnZquM8vTKHYH_qeA71-6">
          <mxGeometry relative="1" as="geometry" />
        </mxCell>
        <mxCell id="KVnZquM8vTKHYH_qeA71-4" value="AST" style="rounded=1;whiteSpace=wrap;html=1;fillColor=#dae8fc;strokeColor=#6c8ebf;" vertex="1" parent="1">
          <mxGeometry x="120" y="360" width="120" height="60" as="geometry" />
        </mxCell>
        <mxCell id="KVnZquM8vTKHYH_qeA71-12" style="rounded=0;orthogonalLoop=1;jettySize=auto;html=1;startArrow=classic;startFill=1;" edge="1" parent="1" source="KVnZquM8vTKHYH_qeA71-6" target="KVnZquM8vTKHYH_qeA71-8">
          <mxGeometry relative="1" as="geometry" />
        </mxCell>
        <mxCell id="KVnZquM8vTKHYH_qeA71-15" style="edgeStyle=orthogonalEdgeStyle;rounded=0;orthogonalLoop=1;jettySize=auto;html=1;" edge="1" parent="1" source="KVnZquM8vTKHYH_qeA71-6" target="KVnZquM8vTKHYH_qeA71-14">
          <mxGeometry relative="1" as="geometry" />
        </mxCell>
        <mxCell id="KVnZquM8vTKHYH_qeA71-43" value="" style="edgeStyle=orthogonalEdgeStyle;rounded=0;orthogonalLoop=1;jettySize=auto;html=1;startArrow=classic;startFill=1;" edge="1" parent="1" source="KVnZquM8vTKHYH_qeA71-6" target="KVnZquM8vTKHYH_qeA71-9">
          <mxGeometry relative="1" as="geometry" />
        </mxCell>
        <mxCell id="KVnZquM8vTKHYH_qeA71-44" value="" style="rounded=0;orthogonalLoop=1;jettySize=auto;html=1;startArrow=classic;startFill=1;" edge="1" parent="1" source="KVnZquM8vTKHYH_qeA71-6" target="KVnZquM8vTKHYH_qeA71-10">
          <mxGeometry relative="1" as="geometry" />
        </mxCell>
        <mxCell id="KVnZquM8vTKHYH_qeA71-6" value="lambda conversion" style="ellipse;whiteSpace=wrap;html=1;fillColor=#ffe6cc;strokeColor=#d79b00;" vertex="1" parent="1">
          <mxGeometry x="120" y="460" width="120" height="60" as="geometry" />
        </mxCell>
        <mxCell id="KVnZquM8vTKHYH_qeA71-8" value="print function&lt;br&gt;generator" style="ellipse;whiteSpace=wrap;html=1;fillColor=#ffe6cc;strokeColor=#d79b00;" vertex="1" parent="1">
          <mxGeometry x="-40" y="410" width="120" height="60" as="geometry" />
        </mxCell>
        <mxCell id="KVnZquM8vTKHYH_qeA71-9" value="TPMC" style="ellipse;whiteSpace=wrap;html=1;fillColor=#ffe6cc;strokeColor=#d79b00;" vertex="1" parent="1">
          <mxGeometry x="280" y="460" width="120" height="60" as="geometry" />
        </mxCell>
        <mxCell id="KVnZquM8vTKHYH_qeA71-10" value="constructor inlining" style="ellipse;whiteSpace=wrap;html=1;fillColor=#ffe6cc;strokeColor=#d79b00;" vertex="1" parent="1">
          <mxGeometry x="-40" y="510" width="120" height="60" as="geometry" />
        </mxCell>
        <mxCell id="KVnZquM8vTKHYH_qeA71-19" style="edgeStyle=orthogonalEdgeStyle;rounded=0;orthogonalLoop=1;jettySize=auto;html=1;startArrow=classic;startFill=1;endArrow=classic;endFill=1;" edge="1" parent="1" source="KVnZquM8vTKHYH_qeA71-11" target="KVnZquM8vTKHYH_qeA71-9">
          <mxGeometry relative="1" as="geometry" />
        </mxCell>
        <mxCell id="KVnZquM8vTKHYH_qeA71-11" value="variable substitution" style="ellipse;whiteSpace=wrap;html=1;fillColor=#ffe6cc;strokeColor=#d79b00;" vertex="1" parent="1">
          <mxGeometry x="280" y="560" width="120" height="60" as="geometry" />
        </mxCell>
        <mxCell id="KVnZquM8vTKHYH_qeA71-25" style="edgeStyle=orthogonalEdgeStyle;rounded=0;orthogonalLoop=1;jettySize=auto;html=1;entryX=0.5;entryY=0;entryDx=0;entryDy=0;" edge="1" parent="1" source="KVnZquM8vTKHYH_qeA71-14" target="KVnZquM8vTKHYH_qeA71-22">
          <mxGeometry relative="1" as="geometry" />
        </mxCell>
        <mxCell id="KVnZquM8vTKHYH_qeA71-14" value="plain lambda form" style="rounded=1;whiteSpace=wrap;html=1;fillColor=#dae8fc;strokeColor=#6c8ebf;" vertex="1" parent="1">
          <mxGeometry x="120" y="560" width="120" height="60" as="geometry" />
        </mxCell>
        <mxCell id="KVnZquM8vTKHYH_qeA71-24" style="edgeStyle=orthogonalEdgeStyle;rounded=0;orthogonalLoop=1;jettySize=auto;html=1;entryX=0;entryY=0.5;entryDx=0;entryDy=0;startArrow=classic;startFill=1;" edge="1" parent="1" source="KVnZquM8vTKHYH_qeA71-22" target="KVnZquM8vTKHYH_qeA71-23">
          <mxGeometry relative="1" as="geometry" />
        </mxCell>
        <mxCell id="KVnZquM8vTKHYH_qeA71-27" value="" style="edgeStyle=orthogonalEdgeStyle;rounded=0;orthogonalLoop=1;jettySize=auto;html=1;" edge="1" parent="1" source="KVnZquM8vTKHYH_qeA71-22" target="KVnZquM8vTKHYH_qeA71-26">
          <mxGeometry relative="1" as="geometry" />
        </mxCell>
        <mxCell id="KVnZquM8vTKHYH_qeA71-22" value="type checking" style="ellipse;whiteSpace=wrap;html=1;fillColor=#ffe6cc;strokeColor=#d79b00;" vertex="1" parent="1">
          <mxGeometry x="120" y="660" width="120" height="60" as="geometry" />
        </mxCell>
        <mxCell id="KVnZquM8vTKHYH_qeA71-23" value="print compiler" style="ellipse;whiteSpace=wrap;html=1;fillColor=#ffe6cc;strokeColor=#d79b00;" vertex="1" parent="1">
          <mxGeometry x="280" y="660" width="120" height="60" as="geometry" />
        </mxCell>
        <mxCell id="KVnZquM8vTKHYH_qeA71-29" value="" style="edgeStyle=orthogonalEdgeStyle;rounded=0;orthogonalLoop=1;jettySize=auto;html=1;" edge="1" parent="1" source="KVnZquM8vTKHYH_qeA71-26" target="KVnZquM8vTKHYH_qeA71-28">
          <mxGeometry relative="1" as="geometry" />
        </mxCell>
        <mxCell id="KVnZquM8vTKHYH_qeA71-26" value="plain lambda form" style="rounded=1;whiteSpace=wrap;html=1;fillColor=#dae8fc;strokeColor=#6c8ebf;" vertex="1" parent="1">
          <mxGeometry x="120" y="760" width="120" height="60" as="geometry" />
        </mxCell>
        <mxCell id="KVnZquM8vTKHYH_qeA71-31" value="" style="edgeStyle=orthogonalEdgeStyle;rounded=0;orthogonalLoop=1;jettySize=auto;html=1;" edge="1" parent="1" source="KVnZquM8vTKHYH_qeA71-28" target="KVnZquM8vTKHYH_qeA71-30">
          <mxGeometry relative="1" as="geometry" />
        </mxCell>
        <mxCell id="KVnZquM8vTKHYH_qeA71-28" value="A-Normal form&lt;br&gt;conversion" style="ellipse;whiteSpace=wrap;html=1;fillColor=#ffe6cc;strokeColor=#d79b00;" vertex="1" parent="1">
          <mxGeometry x="480" y="760" width="120" height="60" as="geometry" />
        </mxCell>
        <mxCell id="KVnZquM8vTKHYH_qeA71-41" value="" style="edgeStyle=orthogonalEdgeStyle;rounded=0;orthogonalLoop=1;jettySize=auto;html=1;" edge="1" parent="1" source="KVnZquM8vTKHYH_qeA71-30" target="KVnZquM8vTKHYH_qeA71-38">
          <mxGeometry relative="1" as="geometry" />
        </mxCell>
        <mxCell id="KVnZquM8vTKHYH_qeA71-30" value="ANF" style="rounded=1;whiteSpace=wrap;html=1;fillColor=#dae8fc;strokeColor=#6c8ebf;" vertex="1" parent="1">
          <mxGeometry x="480" y="660" width="120" height="60" as="geometry" />
        </mxCell>
        <mxCell id="KVnZquM8vTKHYH_qeA71-35" value="" style="edgeStyle=orthogonalEdgeStyle;rounded=0;orthogonalLoop=1;jettySize=auto;html=1;" edge="1" parent="1" source="KVnZquM8vTKHYH_qeA71-32" target="KVnZquM8vTKHYH_qeA71-34">
          <mxGeometry relative="1" as="geometry" />
        </mxCell>
        <mxCell id="KVnZquM8vTKHYH_qeA71-32" value="Bytecode compiler" style="ellipse;whiteSpace=wrap;html=1;fillColor=#ffe6cc;strokeColor=#d79b00;" vertex="1" parent="1">
          <mxGeometry x="480" y="360" width="120" height="60" as="geometry" />
        </mxCell>
        <mxCell id="KVnZquM8vTKHYH_qeA71-37" value="" style="edgeStyle=orthogonalEdgeStyle;rounded=0;orthogonalLoop=1;jettySize=auto;html=1;" edge="1" parent="1" source="KVnZquM8vTKHYH_qeA71-34" target="KVnZquM8vTKHYH_qeA71-36">
          <mxGeometry relative="1" as="geometry" />
        </mxCell>
        <mxCell id="KVnZquM8vTKHYH_qeA71-34" value="bytecode" style="rounded=1;whiteSpace=wrap;html=1;fillColor=#dae8fc;strokeColor=#6c8ebf;" vertex="1" parent="1">
          <mxGeometry x="480" y="260" width="120" height="60" as="geometry" />
        </mxCell>
        <mxCell id="KVnZquM8vTKHYH_qeA71-36" value="CEKF runtime" style="ellipse;whiteSpace=wrap;html=1;fillColor=#ffe6cc;strokeColor=#d79b00;" vertex="1" parent="1">
          <mxGeometry x="480" y="160" width="120" height="60" as="geometry" />
        </mxCell>
        <mxCell id="KVnZquM8vTKHYH_qeA71-42" value="" style="edgeStyle=orthogonalEdgeStyle;rounded=0;orthogonalLoop=1;jettySize=auto;html=1;" edge="1" parent="1" source="KVnZquM8vTKHYH_qeA71-38" target="KVnZquM8vTKHYH_qeA71-39">
          <mxGeometry relative="1" as="geometry" />
        </mxCell>
        <mxCell id="KVnZquM8vTKHYH_qeA71-38" value="desugaring" style="ellipse;whiteSpace=wrap;html=1;fillColor=#ffe6cc;strokeColor=#d79b00;" vertex="1" parent="1">
          <mxGeometry x="480" y="560" width="120" height="60" as="geometry" />
        </mxCell>
        <mxCell id="KVnZquM8vTKHYH_qeA71-40" value="" style="edgeStyle=orthogonalEdgeStyle;rounded=0;orthogonalLoop=1;jettySize=auto;html=1;" edge="1" parent="1" source="KVnZquM8vTKHYH_qeA71-39" target="KVnZquM8vTKHYH_qeA71-32">
          <mxGeometry relative="1" as="geometry" />
        </mxCell>
        <mxCell id="KVnZquM8vTKHYH_qeA71-39" value="Desugared ANF" style="rounded=1;whiteSpace=wrap;html=1;fillColor=#dae8fc;strokeColor=#6c8ebf;" vertex="1" parent="1">
          <mxGeometry x="480" y="460" width="120" height="60" as="geometry" />
        </mxCell>
      </root>
    </mxGraphModel>
  </diagram>
</mxfile>
